<svg width="24" height="24" viewBox="0 0 24 24" fill="none" xmlns="http://www.w3.org/2000/svg">
<g opacity="0.85">
<path d="M16.1569 13.4936H7.58323C7.3799 13.4936 7.21046 13.5589 7.07491 13.6894C6.93936 13.82 6.87158 13.9822 6.87158 14.1761C6.87158 14.3702 6.93936 14.5343 7.07491 14.6685C7.21046 14.8027 7.3799 14.8699 7.58323 14.8699H16.1569C16.3527 14.8699 16.5165 14.8027 16.6483 14.6685C16.7801 14.5343 16.8459 14.3702 16.8459 14.1761C16.8459 13.9822 16.7801 13.82 16.6483 13.6894C16.5165 13.5589 16.3527 13.4936 16.1569 13.4936ZM16.1569 17.3985H7.58323C7.3799 17.3985 7.21046 17.4657 7.07491 17.5999C6.93936 17.7342 6.87158 17.9021 6.87158 18.1035C6.87158 18.2899 6.93936 18.4484 7.07491 18.579C7.21046 18.7095 7.3799 18.7748 7.58323 18.7748H16.1569C16.3527 18.7748 16.5165 18.7095 16.6483 18.579C16.7801 18.4484 16.8459 18.2899 16.8459 18.1035C16.8459 17.9021 16.7801 17.7342 16.6483 17.5999C16.5165 17.4657 16.3527 17.3985 16.1569 17.3985ZM6.00178 23.9888H17.9982C19.1654 23.9888 20.0409 23.696 20.6245 23.1105C21.2082 22.5249 21.5 21.6503 21.5 20.4867V10.3273C21.5 9.84241 21.4736 9.43589 21.4209 9.10768C21.3682 8.77947 21.2647 8.47924 21.1103 8.20698C20.9559 7.93472 20.7281 7.64567 20.4268 7.33985L14.2027 1.06293C13.9166 0.772027 13.6379 0.550116 13.3668 0.397202C13.0957 0.244288 12.8001 0.13986 12.4801 0.083916C12.16 0.027972 11.7891 0 11.3674 0H6.00178C4.83452 0 3.95907 0.294638 3.37544 0.883914C2.79182 1.47319 2.5 2.34965 2.5 3.51329V20.4867C2.5 21.6578 2.79182 22.5343 3.37544 23.1161C3.95907 23.6979 4.83452 23.9888 6.00178 23.9888ZM6.08085 22.1873C5.50099 22.1873 5.06232 22.0382 4.76486 21.7398C4.4674 21.4415 4.31867 21.0126 4.31867 20.4532V3.54684C4.31867 2.99487 4.4674 2.56597 4.76486 2.26014C5.06232 1.95431 5.50475 1.8014 6.09215 1.8014H11.1189V8.30208C11.1189 9.00325 11.2959 9.52912 11.6498 9.87971C12.0038 10.2303 12.5347 10.4056 13.2426 10.4056H19.6813V20.4532C19.6813 21.0126 19.5326 21.4415 19.2351 21.7398C18.9376 22.0382 18.4952 22.1873 17.9078 22.1873H6.08085ZM13.4459 8.71607C13.22 8.71607 13.0599 8.66758 12.9658 8.57062C12.8717 8.47365 12.8246 8.31328 12.8246 8.0895V2.14825L19.3312 8.71607H13.4459Z" fill="#52B330"/>
</g>
</svg>
